<?xml version="1.0" standalone="no"?>
<!DOCTYPE svg PUBLIC "-//W3C//DTD SVG 20010904//EN"
 "http://www.w3.org/TR/2001/REC-SVG-20010904/DTD/svg10.dtd">
<svg version="1.0" xmlns="http://www.w3.org/2000/svg"
 width="840.000000pt" height="859.000000pt" viewBox="0 0 840.000000 859.000000"
 preserveAspectRatio="xMidYMid meet">

<g transform="translate(0.000000,859.000000) scale(0.100000,-0.100000)"
fill="#ff8c00" stroke="none">
<path d="M3850 8524 c-25 -8 -61 -19 -80 -25 -62 -20 -184 -81 -212 -107 -31
-28 -84 -34 -102 -11 -12 16 -70 42 -132 60 -43 12 -170 8 -239 -9 -36 -8
-125 -48 -198 -88 -40 -22 -145 -128 -192 -194 -61 -84 -105 -182 -105 -233 0
-50 -22 -53 -58 -8 -36 44 -118 100 -182 124 -28 10 -73 17 -115 16 -171 -1
-277 -106 -278 -275 0 -85 22 -142 83 -208 22 -24 40 -45 40 -48 0 -3 -60 -8
-132 -10 -171 -7 -230 -24 -368 -106 -83 -49 -138 -112 -147 -167 -8 -50 4
-99 32 -129 30 -33 31 -47 5 -71 -58 -52 -82 -202 -45 -275 37 -73 137 -150
195 -150 45 0 50 -9 50 -90 0 -70 3 -81 30 -118 28 -39 72 -71 114 -82 22 -6
34 -30 15 -30 -18 0 -67 -58 -96 -114 -29 -58 -35 -53 -58 49 -9 38 -20 78
-26 87 -5 10 -9 28 -9 41 0 13 -7 32 -15 43 -8 10 -15 24 -15 30 0 20 -70 117
-109 152 -20 18 -65 47 -100 65 -55 27 -75 31 -135 31 -71 -1 -85 -6 -181 -63
-16 -10 -36 -16 -42 -14 -23 9 -117 -20 -166 -50 -48 -29 -107 -97 -107 -122
0 -7 -6 -15 -13 -18 -10 -4 -12 -22 -9 -68 6 -112 31 -166 101 -222 17 -14 20
-21 11 -37 -8 -16 -21 -20 -58 -20 -41 0 -53 5 -80 33 -31 32 -32 36 -32 120
0 84 6 109 39 150 8 9 10 17 5 17 -12 0 -33 -26 -56 -67 -23 -40 -25 -178 -3
-207 8 -11 15 -34 15 -51 0 -36 38 -81 86 -101 24 -10 36 -24 44 -51 18 -54
40 -92 77 -133 18 -19 33 -38 33 -41 0 -12 120 -90 162 -105 47 -18 178 -43
219 -44 14 0 52 9 85 19 44 15 60 17 66 8 5 -7 8 -1 8 15 0 15 5 30 10 33 5 3
10 16 10 28 -1 22 -1 22 -18 2 -44 -52 -71 -60 -188 -60 -64 1 -118 5 -125 12
-8 5 -27 13 -43 17 -45 11 -129 70 -169 118 -72 88 -107 184 -78 214 6 5 12
20 15 34 13 62 24 86 48 99 23 13 28 12 56 -7 21 -16 45 -22 81 -22 51 0 65
-12 41 -36 -5 -5 -13 -37 -16 -70 -7 -68 15 -134 45 -134 14 1 14 2 -1 11 -20
11 -26 87 -9 105 5 5 14 25 19 44 32 110 45 132 89 146 23 8 46 14 50 13 4 -1
15 -1 23 0 27 2 -11 21 -43 21 -28 0 -136 -46 -148 -64 -4 -4 -30 -8 -59 -8
-43 0 -56 4 -81 28 -42 41 -59 80 -59 139 0 84 47 111 195 109 134 -1 286 -31
317 -62 7 -7 17 -12 23 -12 13 -1 56 -39 78 -70 13 -19 17 -21 17 -7 0 9 -4
17 -10 17 -5 0 -10 5 -10 11 0 14 -56 68 -90 88 -14 8 -47 22 -75 32 -45 16
-50 20 -53 51 -5 57 -15 66 -21 18 l-6 -45 -40 2 c-73 3 -215 15 -215 18 0 15
45 115 51 115 5 0 9 6 9 13 0 14 52 51 93 66 41 16 152 13 193 -4 93 -39 192
-156 245 -290 24 -59 46 -303 31 -342 -6 -15 -13 -52 -17 -80 -5 -51 -5 -53
18 -53 16 0 31 -12 50 -41 41 -62 91 -132 104 -147 7 -7 20 -26 30 -42 9 -17
21 -30 25 -30 4 0 8 -7 8 -15 0 -8 4 -15 8 -15 4 0 25 -25 47 -55 22 -30 43
-55 48 -55 4 0 7 -6 7 -14 0 -8 4 -16 8 -18 5 -1 40 -39 78 -83 96 -110 296
-305 314 -305 4 0 13 -14 20 -30 13 -30 12 -52 -9 -201 -10 -77 -50 -165 -74
-163 -70 6 -345 263 -530 495 -21 27 -43 49 -48 49 -5 0 -9 7 -9 15 0 7 -6 18
-13 22 -7 4 -24 24 -37 43 -14 19 -33 44 -43 55 -22 24 -137 212 -137 225 0 5
-4 12 -10 15 -31 19 78 -180 152 -278 34 -45 67 -87 73 -94 5 -7 26 -32 47
-55 20 -24 90 -106 155 -183 66 -77 150 -168 187 -202 61 -57 66 -64 59 -90
-4 -15 -7 -56 -6 -90 1 -55 5 -65 35 -98 32 -36 34 -37 96 -33 35 2 66 8 70
14 4 5 18 14 32 20 36 16 67 1 144 -71 47 -45 57 -103 31 -202 -25 -97 -70
-185 -122 -243 -13 -14 -23 -28 -23 -33 0 -16 -84 -87 -104 -87 -12 0 -30 -7
-40 -15 -11 -8 -28 -15 -38 -15 -10 0 -18 -4 -18 -9 0 -5 -13 -12 -30 -16 -16
-4 -30 -10 -30 -15 0 -5 -9 -11 -20 -15 -36 -11 -119 -106 -152 -173 -56 -112
-44 -221 34 -311 32 -37 113 -101 127 -101 5 0 11 -3 13 -7 2 -5 21 -17 43
-28 69 -33 69 -33 6 -86 -33 -27 -64 -49 -70 -49 -6 0 -11 -4 -11 -9 0 -5 -12
-14 -27 -20 -16 -5 -50 -24 -78 -40 -27 -17 -60 -36 -72 -42 -13 -7 -23 -16
-23 -21 0 -4 -5 -8 -11 -8 -10 0 -74 -45 -111 -79 -9 -9 -57 -50 -105 -91 -48
-41 -110 -99 -137 -130 -27 -30 -65 -73 -85 -95 -54 -59 -131 -162 -131 -174
0 -6 -4 -11 -8 -11 -5 0 -27 -38 -51 -85 -105 -209 -112 -385 -23 -529 27 -44
116 -136 131 -136 5 0 11 -4 13 -8 6 -15 91 -67 178 -109 88 -43 130 -59 240
-94 36 -11 80 -27 98 -35 18 -8 40 -14 49 -14 9 0 39 -7 67 -15 28 -8 79 -22
114 -31 l62 -18 0 -42 c0 -37 5 -47 33 -68 19 -15 43 -26 54 -26 35 0 33 -25
-5 -86 -20 -33 -40 -63 -44 -69 -34 -42 -160 -220 -186 -263 -36 -59 -82 -189
-82 -233 0 -44 21 -130 41 -170 37 -73 157 -139 252 -139 151 0 299 75 454
229 117 116 210 240 290 389 47 88 48 90 67 140 56 149 76 212 76 243 0 14 6
31 12 37 10 10 13 69 13 225 0 175 -3 225 -19 287 -10 41 -23 79 -27 84 -5 6
-9 16 -9 24 0 17 -57 70 -90 84 -14 6 -65 15 -113 18 -80 7 -92 10 -120 38
-48 45 -95 57 -171 41 -55 -10 -68 -10 -107 5 -55 21 -94 50 -85 64 3 6 39 23
79 37 39 15 86 34 104 41 17 8 36 14 42 14 6 0 19 4 29 9 19 10 177 61 267 86
33 9 78 23 100 31 23 8 49 14 59 14 11 0 42 6 70 14 175 50 567 82 681 57 33
-7 35 -16 15 -106 -6 -27 -14 -86 -18 -129 -6 -63 -11 -81 -26 -90 -48 -27
-59 -43 -52 -80 4 -22 3 -36 -3 -36 -21 0 -218 -208 -252 -266 -48 -82 -66
-161 -49 -215 15 -45 87 -116 129 -126 14 -3 32 -10 39 -16 18 -14 132 -38
267 -56 99 -14 310 -14 384 -1 31 5 83 13 116 19 96 15 184 41 243 70 122 60
174 101 226 179 50 76 66 124 66 198 0 77 -28 150 -77 204 -25 27 -29 45 -13
55 17 10 11 55 -11 86 l-21 30 41 63 c23 34 41 67 41 73 0 6 3 13 8 15 14 6
138 250 177 348 9 25 21 53 26 62 30 58 116 325 144 448 9 41 24 102 33 135
13 46 17 103 17 240 0 191 2 179 -55 310 -25 56 -80 111 -137 137 -64 29 -251
32 -327 5 -27 -10 -55 -16 -61 -13 -7 2 -25 37 -40 78 -15 40 -31 82 -35 93
-34 87 -66 285 -50 315 11 21 39 29 153 40 45 5 144 16 221 24 76 9 149 13
162 10 12 -3 55 2 95 12 59 14 80 25 116 59 48 46 56 85 28 139 -16 30 -9 45
21 46 9 0 58 22 154 69 52 25 168 90 227 128 29 18 56 33 62 33 5 0 11 3 13 8
3 7 17 15 133 76 33 17 66 37 73 44 7 6 17 12 22 12 11 0 307 171 380 219 31
21 62 40 70 44 8 4 27 15 42 25 170 111 177 114 210 103 42 -15 161 -13 228 3
157 38 303 171 341 311 12 42 20 53 53 69 43 21 76 68 76 107 0 15 7 46 16 70
19 53 13 115 -18 178 -21 44 -51 81 -65 81 -5 0 -24 23 -43 52 -57 83 -181
148 -284 148 -25 0 -48 4 -51 10 -15 24 -100 50 -165 50 -54 0 -78 -6 -128
-30 -61 -31 -153 -119 -175 -170 -7 -14 -14 -27 -17 -30 -9 -9 -32 -74 -40
-115 -35 -184 -41 -229 -38 -310 3 -99 0 -107 -40 -128 -113 -60 -607 -307
-614 -307 -10 0 -91 -34 -120 -50 -10 -6 -23 -10 -29 -10 -6 0 -27 -7 -47 -16
-21 -9 -46 -20 -57 -25 -11 -5 -42 -16 -70 -25 -27 -9 -68 -24 -90 -34 -68
-31 -92 -33 -108 -9 -23 32 -85 50 -133 38 -21 -6 -51 -13 -66 -16 l-27 -5 26
63 c15 35 28 86 31 112 5 55 19 65 60 48 96 -40 263 -3 337 74 51 54 65 87 65
159 l0 66 55 0 c123 0 229 102 229 221 0 33 -6 55 -19 69 -10 11 -16 22 -14
23 2 2 25 16 51 31 62 35 93 69 107 118 25 81 -24 179 -116 233 -18 11 -33 22
-33 25 1 3 30 25 65 50 151 105 192 259 97 362 -36 39 -160 108 -193 108 -11
0 -30 5 -41 11 -11 6 -49 14 -83 17 l-63 7 21 40 c16 32 21 59 21 138 1 62 -3
100 -10 105 -6 4 -14 17 -18 29 -8 26 -80 93 -101 93 -8 0 -15 4 -15 9 0 5
-13 12 -30 16 -35 8 -38 23 -9 56 58 66 71 99 72 183 1 71 -3 86 -26 123 -14
22 -42 57 -62 76 -35 34 -172 107 -201 107 -9 0 -25 5 -37 12 -13 7 -80 15
-157 18 l-135 5 3 67 c4 75 -10 103 -71 142 -28 19 -47 21 -165 20 -130 -1
-191 -11 -292 -49 -45 -17 -68 -24 -78 -25 -4 0 -6 24 -4 53 3 42 -2 63 -22
102 -37 70 -70 94 -175 130 -57 20 -258 19 -321 -1z m-699 -155 c-13 -5 -33
-7 -45 -4 -12 3 -15 2 -8 -1 6 -3 12 -10 12 -15 0 -13 -34 -11 -49 4 -11 10
-13 9 -8 -4 5 -17 -14 -31 -60 -44 -13 -4 -23 -11 -23 -17 0 -6 -7 -5 -17 3
-15 12 -16 12 -10 -3 4 -12 1 -18 -9 -18 -8 0 -17 -6 -20 -14 -3 -8 -12 -12
-20 -9 -8 3 -14 -1 -14 -11 0 -9 -7 -16 -15 -16 -8 0 -15 -7 -15 -15 0 -8 -5
-15 -10 -15 -6 0 -24 -14 -41 -31 -36 -37 -48 -33 -22 7 20 31 80 94 90 94 3
0 16 11 28 24 12 13 32 27 43 31 12 3 22 11 22 17 0 6 12 8 30 4 17 -3 29 -2
26 3 -5 7 19 23 54 34 8 3 35 5 60 6 39 0 42 -2 21 -10z m789 -44 c0 -8 -11
-17 -25 -21 -14 -3 -25 -10 -25 -14 0 -4 -12 -11 -26 -14 -91 -23 -211 -101
-314 -205 -67 -66 -89 -67 -54 -3 24 45 57 85 111 135 45 42 62 54 133 88 25
12 56 28 70 35 36 19 130 19 130 -1z m-62 -619 c-2 -6 -55 -37 -118 -69 -190
-95 -210 -111 -329 -247 -23 -26 -30 -30 -31 -17 0 9 5 17 10 17 6 0 10 9 10
21 0 20 36 80 52 87 4 2 8 8 8 12 0 10 88 99 116 117 55 36 147 75 190 82 71
11 95 10 92 -3z m-858 -132 c-25 -7 -70 -14 -100 -14 -30 0 -68 -7 -84 -15
-15 -8 -36 -15 -45 -15 -10 0 -32 -14 -50 -32 -30 -30 -32 -36 -29 -90 2 -32
1 -58 -2 -58 -25 1 -60 63 -60 106 0 47 40 85 118 112 45 16 83 20 177 21 118
0 119 -1 75 -15z m-1022 -116 c10 -10 3 -15 -30 -25 -24 -7 -57 -13 -74 -13
-57 0 -177 -44 -249 -90 -16 -11 -37 -23 -45 -27 -8 -3 -17 -9 -20 -13 -15
-18 -60 -39 -65 -30 -17 27 56 95 150 138 131 61 301 92 333 60z m3455 -10 c9
0 17 -6 17 -14 0 -8 4 -12 10 -9 9 6 19 0 55 -33 8 -7 19 -11 24 -8 16 10 54
-87 57 -141 1 -29 -2 -53 -7 -53 -5 0 -9 -9 -9 -19 0 -11 -4 -22 -9 -25 -5 -4
-8 21 -8 56 1 41 -2 63 -11 66 -6 2 -12 9 -12 15 0 6 -7 19 -16 29 -13 13 -14
21 -5 32 9 11 7 14 -13 14 -13 0 -40 11 -58 26 -19 14 -40 26 -46 26 -7 0 -9
7 -5 18 6 15 5 15 -10 3 -16 -12 -22 -8 -18 12 1 5 -8 5 -20 2 -15 -5 -19 -4
-14 4 4 8 19 9 43 5 20 -4 45 -7 55 -6z m-425 -47 c33 -11 73 -26 89 -35 44
-22 93 -77 93 -103 0 -26 -18 -31 -26 -8 -4 8 -10 15 -16 15 -5 0 -15 6 -23
13 -31 30 -56 47 -68 47 -6 0 -21 7 -31 15 -11 8 -30 15 -42 15 -13 0 -25 4
-29 9 -3 6 -27 13 -53 17 -26 4 -63 13 -82 20 -63 23 114 18 188 -5z m-1928
-292 c-77 -106 -217 -197 -335 -214 -104 -15 -120 -15 -199 -5 -92 13 -193 61
-207 98 -13 34 5 34 50 2 22 -17 49 -30 60 -30 10 0 38 -7 61 -15 86 -31 247
-8 361 51 70 36 177 109 203 138 29 31 33 13 6 -25z m-1260 23 c0 -5 -12 -15
-27 -22 -59 -29 -143 -83 -143 -91 0 -5 -4 -9 -10 -9 -10 0 -50 -36 -50 -45 0
-3 -11 -18 -24 -33 -13 -15 -34 -38 -45 -52 -19 -23 -20 -23 -21 -5 0 62 107
198 180 228 92 37 140 47 140 29z m2415 -188 c7 -8 18 -14 23 -14 6 0 12 -5
14 -12 3 -8 32 -14 80 -16 66 -4 84 -1 137 23 65 29 85 29 54 -2 -58 -57 -212
-78 -286 -38 -53 28 -87 97 -86 171 l1 59 25 -79 c13 -43 31 -85 38 -92z
m-305 74 c-22 -38 -96 -116 -129 -138 -13 -8 -29 -21 -37 -27 -7 -7 -19 -13
-26 -13 -7 0 -22 -6 -33 -13 -32 -21 -134 -42 -205 -42 -112 1 -221 39 -246
86 -7 15 -11 29 -8 32 7 7 44 -4 44 -13 0 -5 21 -18 47 -31 40 -19 62 -22 162
-22 113 0 118 1 191 36 70 34 108 55 120 67 3 3 28 23 55 45 28 21 54 45 58
52 18 29 25 10 7 -19z m1835 -56 c39 -10 92 -30 119 -46 45 -26 86 -76 86
-103 0 -23 -38 -13 -72 18 -64 59 -160 98 -285 116 -27 3 -43 11 -43 19 0 20
108 18 195 -4z m-2694 -122 c5 0 9 -6 9 -13 0 -25 85 -99 147 -128 65 -30 203
-59 283 -59 53 0 199 25 245 42 91 33 161 75 223 134 57 55 68 62 77 48 28
-46 52 -68 101 -90 29 -13 60 -24 69 -24 9 0 25 -5 36 -10 10 -6 61 -11 113
-11 80 0 105 4 163 27 37 15 79 38 92 50 13 13 29 24 36 24 6 0 22 -24 35 -52
13 -29 36 -81 51 -114 30 -67 69 -237 69 -303 0 -28 4 -41 14 -41 16 0 27 -28
56 -140 21 -83 60 -199 85 -250 13 -27 39 -85 63 -140 8 -19 21 -47 29 -62 7
-14 13 -35 13 -45 0 -10 5 -24 11 -30 15 -15 15 -190 -1 -238 -24 -76 -44
-120 -72 -163 -15 -24 -28 -45 -28 -47 0 -25 -162 -184 -244 -239 -174 -116
-308 -168 -666 -256 -50 -13 -210 -87 -210 -98 0 -4 -11 -19 -24 -33 -13 -14
-27 -35 -30 -47 -11 -33 31 -30 44 3 5 14 16 25 24 25 14 0 36 -69 36 -116 0
-39 -22 -105 -37 -111 -7 -3 -13 -10 -13 -17 0 -12 -49 -40 -85 -50 -78 -20
-151 -11 -201 24 -41 29 -70 104 -87 223 -6 36 13 35 41 -3 27 -36 42 -38 42
-7 0 45 -113 138 -220 181 -25 10 -60 24 -78 32 -18 8 -40 14 -50 14 -9 0 -30
7 -46 15 -15 8 -37 15 -47 15 -29 0 -150 46 -254 97 -184 90 -337 196 -449
310 -74 76 -92 97 -129 158 -117 192 -107 362 34 576 34 52 65 96 69 99 16 12
98 137 104 160 4 14 11 34 15 45 11 26 29 125 37 200 6 64 30 147 51 180 7 11
13 27 13 37 0 10 3 18 8 18 4 0 18 18 32 40 14 22 28 40 32 40 5 0 8 6 8 14 0
16 58 46 89 46 22 0 38 6 171 68 l85 39 3 -23 c2 -13 8 -24 13 -24z m-1121
-14 c0 -8 -15 -30 -33 -49 -39 -42 -76 -113 -84 -162 -7 -45 -27 -40 -31 8 -4
48 38 131 92 179 44 41 56 46 56 24z m-910 -250 c0 -3 -10 -22 -22 -43 -13
-20 -28 -53 -33 -73 -8 -26 -20 -40 -47 -52 -20 -10 -44 -28 -52 -40 -22 -32
-20 -106 5 -157 14 -30 17 -47 10 -54 -15 -15 -67 -13 -86 3 -68 56 -75 244
-13 321 21 26 91 69 113 69 11 1 31 7 45 15 23 13 80 21 80 11z m5933 -101
c44 -18 97 -62 97 -81 0 -8 4 -14 9 -14 5 0 12 -13 16 -30 4 -16 11 -30 16
-30 5 0 9 -7 9 -15 0 -9 -9 -15 -25 -15 -14 0 -66 -7 -116 -16 -87 -15 -92
-15 -108 3 -10 10 -16 24 -14 30 3 7 -1 20 -7 30 -9 15 -10 10 -6 -26 5 -52 0
-71 -23 -71 -49 -1 -191 -105 -191 -141 0 -6 14 4 32 21 69 69 148 101 297
120 147 18 219 10 264 -28 39 -34 11 -173 -43 -212 -50 -36 -79 -35 -161 4
-74 35 -130 45 -158 27 -17 -11 -5 -33 17 -30 10 1 34 1 54 0 35 -1 38 -4 67
-66 44 -93 61 -144 61 -190 l1 -40 15 29 c20 36 20 78 0 146 -9 29 -16 55 -16
57 0 2 16 3 36 3 36 0 114 36 114 52 0 5 12 2 28 -7 26 -16 62 -83 62 -117 0
-9 7 -24 16 -33 15 -14 15 -20 -1 -68 -59 -184 -226 -297 -437 -297 -65 0
-115 17 -148 50 -25 25 -40 18 -22 -10 21 -35 13 -46 -70 -100 -46 -29 -85
-56 -88 -59 -3 -3 -14 -11 -25 -18 -11 -7 -90 -55 -175 -107 -85 -51 -180
-107 -210 -124 -30 -16 -77 -42 -105 -57 -27 -16 -57 -32 -65 -36 -8 -4 -65
-37 -126 -73 -62 -36 -116 -66 -122 -66 -6 0 -12 -3 -14 -7 -1 -5 -28 -21 -58
-36 -30 -16 -71 -37 -90 -47 -88 -45 -219 -93 -315 -113 -140 -30 -133 -31
-151 11 -13 27 -17 68 -18 152 -1 103 2 122 27 187 44 111 73 146 138 161 30
8 95 27 144 44 84 29 106 37 193 74 17 8 47 20 65 28 65 27 83 35 157 69 126
58 148 67 158 67 6 0 12 3 14 8 2 4 102 56 223 116 121 60 238 120 259 134 33
20 40 22 47 10 21 -37 44 -58 57 -49 10 6 11 13 4 27 -6 11 -18 49 -27 85 -27
108 -10 405 25 439 3 3 16 27 30 54 33 65 127 161 181 185 54 24 153 27 202 6z
m222 -60 c28 -7 65 -21 83 -30 35 -18 82 -73 82 -96 0 -8 5 -20 11 -26 17 -17
13 -146 -6 -191 -23 -51 -71 -80 -103 -63 -27 14 -27 24 -4 58 12 19 17 46 16
90 -1 69 -17 91 -81 113 -19 7 -35 20 -38 33 -11 36 -37 91 -52 105 -7 7 -13
18 -13 23 0 9 12 8 105 -16z m-4831 -202 c47 -24 96 -74 96 -99 0 -12 -16 -43
-35 -68 -19 -26 -35 -49 -35 -52 0 -3 -6 -11 -12 -18 -26 -27 -78 -93 -111
-141 -46 -67 -83 -72 -146 -19 -80 67 -119 251 -69 323 55 82 219 121 312 74z
m5092 -26 c14 -30 19 -64 19 -124 0 -81 -1 -83 -34 -113 -43 -37 -94 -41 -122
-8 -22 25 -24 38 -6 38 19 0 63 52 82 96 8 20 15 65 15 100 0 75 16 78 46 11z
m-2276 -116 c180 -53 221 -110 173 -244 -30 -83 -126 -167 -191 -167 -25 0
-51 24 -52 48 0 7 -27 69 -60 138 -63 132 -73 177 -42 211 33 38 77 42 172 14z
m-4454 -25 c11 -8 37 -17 57 -21 20 -4 37 -9 37 -10 0 -41 -63 -48 -104 -10
-24 23 -35 55 -18 55 4 0 17 -6 28 -14z m993 -115 c29 -48 101 -94 155 -101
37 -5 42 -9 54 -44 13 -41 64 -96 110 -120 15 -8 53 -20 85 -27 56 -13 57 -14
57 -49 1 -115 58 -283 118 -348 6 -7 17 -23 23 -34 10 -18 8 -24 -12 -39 -13
-10 -29 -19 -34 -19 -13 0 -157 147 -246 250 -92 106 -162 195 -273 347 l-96
131 12 46 c7 25 15 46 18 46 3 0 16 -18 29 -39z m5734 -45 c-19 -27 -68 -42
-102 -31 -31 10 -26 35 7 36 15 0 45 8 67 18 46 21 55 13 28 -23z m-3886
-1686 c21 -11 47 -20 59 -20 11 0 24 -3 27 -7 10 -9 90 -12 102 -3 6 5 33 11
60 15 50 7 50 6 21 -9 -16 -9 -47 -19 -70 -22 -22 -3 -48 -8 -56 -11 -26 -10
-70 -13 -70 -5 0 4 -17 8 -38 10 -20 1 -49 11 -64 22 -15 11 -30 20 -33 20
-12 0 -32 26 -40 50 -4 14 -11 27 -15 30 -4 3 -11 16 -15 30 -6 20 3 14 43
-27 28 -29 68 -61 89 -73z m-618 -202 c-19 -18 -46 -39 -58 -46 -76 -44 -94
-52 -114 -52 -13 0 -32 -7 -43 -15 -10 -8 -40 -17 -66 -21 -27 -4 -48 -10 -48
-15 0 -5 -13 -9 -28 -9 -15 0 -32 -4 -38 -9 -5 -5 -31 -14 -59 -21 -27 -6 -77
-18 -110 -27 -85 -21 -122 -26 -142 -19 -13 5 -5 13 33 31 27 13 55 25 62 25
7 0 20 4 30 9 18 9 80 26 152 42 24 5 49 14 54 19 6 6 27 10 47 10 21 0 40 4
43 9 4 5 30 12 59 16 28 4 57 11 62 15 6 4 25 11 43 15 17 3 32 11 32 16 0 5
6 9 13 9 6 0 32 13 57 29 25 16 47 27 49 25 2 -2 -11 -19 -30 -36z m-405 -551
c94 -92 177 -155 291 -224 60 -36 211 -104 290 -130 160 -53 268 -72 460 -80
116 -5 118 -6 80 -19 -100 -33 -332 -56 -490 -49 -151 8 -444 46 -547 71 -32
8 -86 21 -120 29 -123 30 -166 48 -180 73 -8 16 -13 58 -13 111 1 140 40 282
87 316 25 17 16 23 142 -98z m2010 -1370 c20 -16 36 -34 36 -41 0 -22 -76 -35
-236 -40 -111 -3 -160 -9 -182 -20 -36 -18 -88 -21 -98 -5 -9 16 43 66 95 90
25 12 60 28 76 35 22 11 61 14 151 11 115 -3 124 -4 158 -30z m-75 -133 c14
-8 31 -14 36 -14 6 0 16 -9 23 -20 10 -17 10 -21 -3 -26 -8 -4 -28 -4 -43 -1
-116 24 -155 28 -231 22 -47 -3 -92 -10 -100 -14 -9 -5 -40 -11 -68 -15 -92
-12 -56 28 59 66 81 27 277 28 327 2z m-229 -86 c0 8 23 12 80 12 44 0 80 -4
80 -9 0 -4 32 -11 71 -13 45 -4 74 -11 80 -19 6 -10 27 -13 78 -11 111 4 180
-44 205 -141 9 -36 -1 -34 -50 11 -42 40 -157 102 -187 102 -9 0 -17 4 -17 9
0 9 -131 28 -158 22 -8 -1 -19 3 -27 9 -22 18 -272 -1 -390 -30 -132 -33 -300
-101 -353 -143 -7 -5 -15 -7 -19 -4 -9 10 139 153 167 162 14 4 28 12 31 18 4
5 29 12 56 14 37 4 52 1 62 -11 14 -17 51 -22 51 -7 0 5 47 12 105 16 58 4
108 12 111 17 4 6 10 5 15 -3 6 -10 9 -11 9 -1z m195 -48 c75 -13 139 -30 150
-41 5 -5 15 -9 23 -9 22 0 132 -78 176 -124 56 -60 69 -82 59 -101 -7 -13 -64
-62 -118 -103 -41 -30 -155 -76 -255 -102 -29 -8 -26 -8 20 -4 30 3 59 9 65
15 5 5 16 9 25 9 8 0 28 7 44 15 15 8 33 15 38 15 6 0 44 20 85 45 52 32 71
39 63 26 -16 -30 -85 -85 -148 -118 -50 -26 -80 -36 -207 -74 -28 -8 -112 -18
-286 -35 -80 -8 -316 11 -419 33 -79 17 -184 63 -211 91 -66 72 -63 131 12
202 76 75 215 150 345 190 38 12 84 26 103 32 19 6 62 15 95 20 34 5 81 13
106 17 60 11 173 12 235 1z m-1343 -92 c43 -79 60 -425 27 -564 -25 -109 -43
-170 -56 -191 -7 -12 -13 -29 -13 -36 0 -43 -121 -259 -220 -393 -156 -210
-293 -321 -452 -368 -102 -29 -258 -13 -258 28 0 7 -15 21 -33 31 -71 38 -107
157 -82 275 16 75 15 73 70 167 23 40 46 66 65 75 18 8 28 18 25 26 -4 12 32
71 59 97 6 6 21 28 33 50 25 46 43 56 43 25 0 -20 4 -22 37 -17 20 4 39 10 42
15 3 5 29 19 56 31 28 12 58 27 67 32 10 5 65 9 124 9 78 0 109 4 120 14 18
19 18 42 -1 50 -8 3 -15 12 -15 21 0 8 -7 15 -16 15 -14 0 -16 8 -11 46 2 26
9 49 14 53 16 12 40 56 47 89 4 17 12 32 17 32 5 0 12 18 15 40 4 22 10 40 14
40 4 0 11 12 14 26 7 27 9 30 53 82 38 44 91 54 123 22 22 -22 23 -27 17 -173
-4 -83 -10 -153 -15 -156 -5 -3 -13 -37 -17 -76 -4 -38 -10 -74 -14 -80 -4 -5
-15 -35 -25 -65 -25 -77 -66 -161 -90 -185 -26 -26 -66 -47 -66 -34 0 5 -15 9
-32 9 -18 0 -64 12 -103 26 -55 21 -95 27 -187 31 -71 3 -123 2 -130 -4 -7 -6
-30 -14 -52 -17 -21 -4 -55 -16 -75 -27 l-36 -20 40 7 c22 4 43 12 47 18 11
17 350 15 355 -1 3 -7 14 -13 24 -13 31 0 111 -57 142 -101 l29 -40 18 24 c10
12 29 42 42 66 66 121 88 165 88 173 0 8 12 37 50 123 9 21 25 88 40 167 5 27
11 52 14 56 3 5 12 69 21 143 14 110 15 147 5 209 -20 134 -21 140 -16 140 3
0 11 -10 18 -22z m-499 -468 c9 -11 17 -30 17 -41 0 -21 -50 -79 -69 -79 -6 0
-11 -4 -11 -10 0 -5 -11 -12 -24 -16 -13 -3 -45 -16 -70 -29 -39 -20 -52 -22
-76 -13 -27 9 -30 14 -30 52 0 36 6 47 43 83 57 55 93 72 152 73 39 0 55 -5
68 -20z m44 -172 c60 -22 41 -38 -46 -38 -50 0 -89 -5 -107 -15 -16 -8 -37
-15 -46 -15 -10 0 -18 -4 -18 -9 0 -16 -60 -35 -72 -23 -14 14 13 48 46 58 11
4 23 10 26 14 5 7 130 36 164 39 11 0 35 -4 53 -11z m-288 -54 c-6 -8 -18 -14
-25 -14 -8 0 -14 -5 -14 -12 0 -6 -3 -8 -6 -5 -12 12 25 57 41 51 12 -5 13
-10 4 -20z"/>
<path d="M5560 7319 c0 -5 5 -7 10 -4 6 3 10 8 10 11 0 2 -4 4 -10 4 -5 0 -10
-5 -10 -11z"/>
<path d="M4086 6690 c-79 -40 -130 -80 -118 -92 8 -8 107 35 122 53 15 19 87
31 144 24 71 -8 110 -24 180 -77 55 -42 76 -47 76 -20 -1 38 -68 92 -153 123
-82 30 -178 26 -251 -11z"/>
<path d="M3017 6669 c-87 -20 -187 -109 -187 -166 0 -34 11 -27 45 24 21 33
48 57 90 80 76 42 118 42 192 3 66 -35 73 -36 73 -11 0 28 -50 60 -111 71 -28
6 -54 10 -58 9 -3 -1 -23 -5 -44 -10z"/>
<path d="M4290 6504 c-96 -20 -147 -50 -220 -126 -58 -60 -76 -140 -19 -85 39
39 80 56 167 72 90 16 102 20 102 37 0 7 -28 9 -86 5 -70 -4 -82 -3 -67 8 86
59 199 68 270 22 24 -15 45 -27 48 -27 14 0 3 48 -14 62 -16 13 -105 50 -114
47 -1 0 -31 -7 -67 -15z"/>
<path d="M2906 6396 c-47 -18 -86 -60 -86 -93 0 -30 3 -29 48 11 20 19 61 42
89 51 46 15 59 15 105 4 l53 -13 -42 -7 c-54 -10 -83 -26 -83 -46 0 -13 7 -14
38 -9 105 19 147 19 191 -3 56 -26 71 -17 34 21 -69 75 -253 119 -347 84z"/>
<path d="M3515 6298 c-6 -12 -24 -26 -40 -32 -50 -18 -72 -39 -83 -78 -12 -43
3 -116 32 -161 31 -47 87 -87 120 -86 l31 0 -25 17 c-46 32 -89 85 -105 130
-20 59 -19 92 4 120 16 18 29 22 74 22 69 0 133 -32 216 -106 36 -33 62 -50
66 -44 9 14 -36 78 -71 105 -15 11 -32 25 -38 30 -19 17 -80 44 -106 47 -16 2
-30 13 -38 31 -16 33 -24 34 -37 5z"/>
<path d="M3468 5823 c7 -3 16 -2 19 1 4 3 -2 6 -13 5 -11 0 -14 -3 -6 -6z"/>
<path d="M4028 5818 c16 -8 28 -8 45 0 19 9 17 11 -23 11 -40 0 -42 -2 -22
-11z"/>
<path d="M3288 5803 c6 -2 18 -2 25 0 6 3 1 5 -13 5 -14 0 -19 -2 -12 -5z"/>
<path d="M4208 5803 c7 -3 16 -2 19 1 4 3 -2 6 -13 5 -11 0 -14 -3 -6 -6z"/>
<path d="M4756 5795 c-25 -25 -64 -35 -141 -35 -41 0 -76 -4 -79 -9 -14 -23
-172 -41 -601 -71 -365 -26 -373 -27 -625 -61 -277 -37 -510 -21 -510 35 0 11
-7 12 -39 2 -22 -6 -43 -15 -47 -19 -4 -4 -36 -7 -72 -7 -62 0 -64 -1 -44 -17
11 -10 28 -43 37 -73 9 -30 21 -66 28 -80 18 -42 110 -180 119 -180 4 0 8 -4
8 -10 0 -12 68 -80 80 -80 6 0 10 -3 10 -8 0 -21 161 -109 260 -142 237 -78
785 -64 998 26 18 8 38 14 44 14 15 0 134 56 223 104 38 21 115 79 115 88 0 4
7 8 15 8 8 0 15 4 15 9 0 5 20 30 45 56 50 54 113 170 139 260 33 112 51 160
64 173 26 28 -14 44 -42 17z m-196 -166 c24 -5 59 -21 77 -35 40 -31 42 -61 8
-124 -13 -25 -28 -54 -34 -66 -25 -54 -201 -203 -281 -237 -8 -4 -22 -11 -30
-15 -8 -5 -31 -16 -50 -24 -19 -8 -46 -20 -60 -26 -25 -12 -62 -22 -173 -47
-32 -7 -65 -16 -74 -19 -52 -20 -384 -34 -528 -22 -123 11 -298 51 -363 85 -9
5 -38 20 -65 32 -45 23 -65 37 -132 97 -36 32 -125 148 -125 162 0 6 -4 10
-10 10 -5 0 -10 16 -10 37 0 43 42 87 99 103 50 14 144 12 164 -2 19 -15 47
-89 47 -124 0 -15 10 -30 28 -41 15 -10 29 -20 32 -23 30 -34 166 -112 244
-139 111 -39 131 -43 234 -51 112 -8 320 5 337 21 5 5 19 9 31 9 13 0 25 4 29
9 3 5 19 12 35 16 39 9 143 64 153 81 4 8 15 14 22 14 8 0 15 5 15 10 0 6 17
27 38 48 65 65 92 122 56 122 -11 0 -14 5 -10 16 3 9 6 19 6 23 0 14 56 66 85
80 26 12 98 26 145 30 8 0 35 -4 60 -10z m-607 -79 c42 -7 77 -16 77 -20 0 -5
14 -11 31 -15 35 -8 125 -51 152 -74 16 -13 16 -16 1 -40 -25 -39 -78 -83
-131 -111 -27 -14 -49 -28 -51 -32 -2 -5 -13 -8 -24 -8 -11 0 -34 -6 -51 -13
-85 -36 -109 -40 -270 -45 -137 -3 -183 -1 -245 14 -42 9 -81 21 -87 25 -5 4
-27 10 -47 14 -21 4 -42 13 -49 21 -6 8 -22 14 -35 14 -13 0 -24 5 -24 10 0 6
-10 15 -22 20 -29 13 -56 30 -82 53 -23 20 -16 42 20 61 10 6 21 13 24 16 12
12 120 61 178 80 34 11 89 23 123 27 33 3 62 10 65 14 7 12 357 4 447 -11z"/>
<path d="M4436 5513 c4 -15 11 -31 17 -34 10 -7 74 16 91 31 14 13 -34 23 -49
10 -12 -10 -20 -9 -40 4 -26 17 -26 17 -19 -11z"/>
<path d="M2850 5475 c-7 -8 -29 -15 -49 -15 l-36 -1 40 -15 c72 -28 70 -28 72
11 2 38 -7 44 -27 20z"/>
<path d="M3178 5793 c7 -3 16 -2 19 1 4 3 -2 6 -13 5 -11 0 -14 -3 -6 -6z"/>
<path d="M7038 5683 c7 -3 16 -2 19 1 4 3 -2 6 -13 5 -11 0 -14 -3 -6 -6z"/>
<path d="M2193 6063 c-4 -9 -2 -18 4 -20 6 -2 9 -13 6 -23 -4 -16 0 -20 20
-20 14 0 27 -7 31 -15 3 -8 15 -15 26 -15 40 0 17 53 -40 93 -31 21 -39 21
-47 0z"/>
<path d="M5165 5887 c-55 -30 -58 -55 -8 -54 21 0 48 -3 61 -8 19 -6 22 -4 22
18 0 18 7 26 26 31 37 10 24 31 -22 33 -24 1 -54 -6 -79 -20z"/>
<path d="M4405 1310 c-4 -6 7 -10 25 -10 18 0 29 4 25 10 -3 6 -15 10 -25 10
-10 0 -22 -4 -25 -10z"/>
<path d="M4230 1292 c0 -5 28 -7 63 -4 89 5 94 10 10 11 -40 1 -73 -3 -73 -7z"/>
<path d="M4080 1280 c-50 -6 -46 -7 38 -8 60 -1 91 2 87 8 -7 11 -38 11 -125
0z"/>
<path d="M2816 613 c-6 -14 -5 -15 5 -6 7 7 10 15 7 18 -3 3 -9 -2 -12 -12z"/>
</g>
</svg>
