<?xml version="1.0" standalone="no"?>
<!DOCTYPE svg PUBLIC "-//W3C//DTD SVG 20010904//EN"
 "http://www.w3.org/TR/2001/REC-SVG-20010904/DTD/svg10.dtd">
<svg version="1.0" xmlns="http://www.w3.org/2000/svg"
 width="1000.000000pt" height="1080.000000pt" viewBox="0 0 1000.000000 1080.000000"
 preserveAspectRatio="xMidYMid meet">

<g transform="translate(0.000000,1080.000000) scale(0.100000,-0.100000)"
fill="#000000" stroke="none">
<path d="M2292 9874 c-115 -30 -233 -131 -286 -243 -27 -58 -31 -76 -31 -151
0 -74 4 -93 31 -150 17 -36 50 -87 74 -113 44 -49 131 -107 163 -107 21 0 21
3 1 -51 -24 -70 -43 -157 -54 -262 -22 -193 28 -430 114 -542 14 -18 14 -15 1
29 -19 63 -19 167 0 212 10 24 25 39 50 50 49 20 97 6 176 -54 34 -26 74 -55
88 -64 29 -20 82 -23 111 -8 17 9 20 4 30 -44 20 -99 92 -188 190 -235 46 -22
68 -26 140 -26 109 0 169 26 240 101 56 60 86 120 96 195 9 65 35 65 46 0 15
-87 93 -182 183 -223 38 -17 69 -23 125 -23 65 0 84 4 142 33 97 47 157 132
173 243 8 53 -14 154 -44 203 -10 17 -16 37 -14 44 3 8 -1 10 -11 6 -21 -8
-32 22 -16 41 14 16 3 20 -19 6 -9 -6 -31 0 -64 18 -75 39 -195 43 -269 9 -97
-45 -158 -117 -184 -217 -8 -35 -16 -47 -33 -49 -15 -3 -21 2 -21 16 0 34 -60
140 -100 176 -65 58 -115 79 -206 84 -97 5 -163 -13 -227 -62 -41 -31 -45 -32
-80 -20 -42 15 -49 4 -12 -20 34 -23 32 -39 -5 -34 -28 4 -29 3 -14 -13 15
-17 14 -23 -8 -80 -37 -98 -83 -120 -147 -70 l-25 19 32 36 c71 81 112 212 93
297 -6 24 -9 45 -7 46 2 2 32 -3 67 -11 35 -8 82 -17 104 -21 l40 -7 -35 -30
c-38 -32 -37 -32 34 0 45 21 60 22 175 18 198 -8 334 23 460 104 65 42 131
105 244 230 l67 75 35 -39 c32 -36 71 -107 89 -161 6 -16 16 -4 51 60 25 44
54 104 65 133 18 48 19 55 5 82 -20 38 -116 111 -218 165 -265 141 -606 215
-864 187 -93 -10 -206 -35 -264 -57 -12 -4 -20 5 -33 38 -39 102 -139 189
-263 227 -76 23 -108 24 -181 4z m1597 -1149 c46 -23 27 -42 -25 -25 -53 18
-141 7 -200 -24 -61 -32 -86 -53 -118 -101 -31 -45 -34 -30 -6 24 33 66 95
118 170 142 38 13 142 4 179 -16z m-677 -12 c95 -43 158 -135 166 -244 6 -85
-16 -152 -69 -213 -117 -133 -321 -133 -438 0 -65 74 -88 181 -59 279 l11 40
8 -44 c13 -69 41 -113 99 -153 29 -21 58 -38 64 -38 6 0 -6 11 -27 25 -38 26
-70 77 -81 130 -10 47 29 114 83 144 92 50 242 22 316 -60 41 -46 47 -36 8 13
-37 44 -49 54 -108 85 -42 23 -63 27 -130 27 -59 1 -89 -4 -115 -18 -31 -16
-33 -16 -18 -1 51 54 199 68 290 28z m656 -74 c34 -17 49 -32 64 -67 32 -72
11 -142 -64 -207 -24 -21 -32 -32 -20 -25 43 22 101 81 121 124 14 27 21 62
21 99 0 65 13 80 35 38 21 -41 19 -61 -5 -61 -13 0 -20 -7 -20 -20 0 -15 7
-20 25 -20 23 0 25 -4 25 -42 -1 -180 -220 -306 -388 -222 -93 46 -163 159
-148 238 25 134 225 227 354 165z"/>
<path d="M3070 8585 c-13 -14 -22 -27 -19 -29 2 -2 14 10 27 25 29 36 24 38
-8 4z"/>
<path d="M3135 8550 c-4 -11 -11 -21 -16 -21 -5 -1 -15 -2 -21 -3 -20 -2 -10
-49 14 -69 25 -21 36 -19 59 14 21 29 16 70 -11 87 -16 10 -20 8 -25 -8z"/>
<path d="M3177 8458 c-43 -61 -46 -69 -25 -63 36 11 67 45 74 81 11 57 0 53
-49 -18z"/>
<path d="M3654 8610 c-36 -14 -54 -50 -54 -106 0 -58 19 -85 42 -61 9 10 20
12 34 7 15 -6 29 -3 44 7 18 13 21 22 17 54 -3 27 -1 39 9 43 21 8 17 33 -8
50 -25 18 -52 19 -84 6z m24 -29 c19 -11 11 -45 -11 -49 -19 -4 -32 20 -23 43
6 17 15 19 34 6z"/>
<path d="M3778 8870 c-34 -10 -101 -51 -94 -57 2 -3 13 0 24 6 33 17 124 24
168 12 23 -6 58 -22 78 -36 28 -19 34 -21 27 -7 -15 28 -54 60 -93 77 -41 16
-68 18 -110 5z"/>
<path d="M2536 8065 c17 -8 44 -17 59 -21 24 -6 26 -5 18 11 -7 12 -25 19 -59
21 l-49 3 31 -14z"/>
<path d="M3200 8006 c0 -2 9 -25 20 -51 62 -144 174 -228 281 -210 49 8 116
67 152 134 16 28 24 51 18 51 -5 0 -13 -5 -17 -11 -16 -26 -110 -59 -170 -59
-72 0 -130 26 -222 100 -34 27 -62 48 -62 46z"/>
<path d="M6890 7369 c-935 -398 -1334 -567 -1755 -744 -35 -15 -38 -18 -20
-25 29 -12 35 -12 35 4 0 24 17 28 49 12 29 -15 35 -13 308 108 153 68 370
164 483 214 1947 858 2074 915 2035 911 -6 -1 -516 -217 -1135 -480z"/>
<path d="M3473 7259 c21 -28 62 -113 72 -149 8 -25 8 -25 -14 -6 -26 23 -25
27 -1 -69 22 -86 26 -156 10 -186 -30 -54 -165 5 -290 128 -57 56 -87 79 -92
70 -5 -9 -11 -7 -23 8 -20 27 -90 164 -97 193 -6 20 -12 22 -65 22 -73 0 -165
-23 -220 -56 -82 -48 -283 -325 -460 -634 -110 -193 -183 -375 -183 -456 0
-52 224 -210 548 -388 67 -37 122 -69 122 -70 0 -2 -20 -33 -44 -69 -111 -165
-150 -384 -127 -721 11 -177 25 -288 75 -631 25 -169 49 -403 62 -606 l6 -106
37 -11 c131 -39 222 -47 556 -46 244 0 350 4 405 15 l75 15 7 89 c63 841 56
1622 -16 1866 -8 26 -67 134 -132 240 l-117 192 6 196 c7 216 22 311 55 344
12 11 23 19 24 16 2 -2 21 -42 43 -88 87 -185 190 -337 245 -366 27 -14 35
-13 102 11 111 40 700 315 727 340 4 4 -9 37 -50 130 l-27 62 -348 -114 c-191
-63 -348 -114 -350 -114 -2 0 -13 33 -24 73 -105 361 -232 729 -282 813 -26
44 -86 72 -172 81 l-61 6 18 -24z m-651 -631 c89 -257 140 -434 183 -635 5
-20 7 -21 35 -7 40 21 100 30 100 15 0 -6 -18 -22 -40 -36 -32 -20 -40 -31
-40 -55 l0 -29 37 16 c63 26 143 5 143 -38 0 -16 -6 -18 -47 -13 l-48 5 38
-21 c27 -15 37 -27 37 -45 0 -29 -7 -30 -34 -10 -34 26 -50 19 -27 -11 16 -21
18 -30 10 -46 -10 -19 -11 -19 -34 6 -13 14 -30 26 -37 26 -8 0 -49 -20 -92
-45 -102 -58 -105 -59 -158 -36 -45 19 -46 19 -38 58 4 21 13 51 21 66 8 19 9
31 3 35 -6 4 -55 43 -110 87 -54 45 -147 118 -206 164 -60 45 -108 87 -108 92
0 16 195 398 250 489 49 81 86 130 100 130 3 0 31 -73 62 -162z"/>
<path d="M2934 5828 l-19 -23 23 19 c21 18 27 26 19 26 -2 0 -12 -10 -23 -22z"/>
<path d="M4953 6548 c-78 -34 -93 -44 -93 -63 0 -13 6 -25 14 -28 23 -9 94 23
99 44 3 11 12 19 21 19 10 0 16 8 16 21 0 19 4 21 34 16 30 -5 33 -3 29 14 -7
25 -13 24 -120 -23z"/>
<path d="M2846 2295 c-12 -47 -7 -218 8 -305 9 -47 16 -89 16 -93 0 -5 6 -7
13 -5 8 3 14 37 17 104 5 92 6 97 20 74 7 -14 26 -65 40 -115 l26 -90 70 -13
c38 -7 105 -11 149 -10 72 3 80 5 80 23 0 13 -18 30 -55 52 -60 36 -80 41 -80
18 0 -39 -87 3 -152 73 -57 61 -91 127 -119 229 -12 43 -22 79 -24 81 -1 2 -6
-9 -9 -23z"/>
<path d="M3465 2299 c-18 -56 5 -383 29 -406 17 -17 26 19 26 105 1 89 2 95
16 77 8 -11 24 -51 35 -90 11 -38 23 -81 27 -95 6 -22 16 -27 72 -36 36 -7
102 -12 148 -13 68 -1 84 2 89 16 7 19 -30 52 -89 79 -37 17 -39 16 -52 -1
-13 -19 -15 -19 -55 -1 -91 42 -180 171 -217 316 -19 77 -20 78 -29 49z"/>
<path d="M0 400 l0 -400 5000 0 5000 0 0 400 0 400 -5000 0 -5000 0 0 -400z
m2192 123 c23 -20 23 -57 1 -74 -15 -11 -16 -11 -5 1 27 31 11 72 -33 83 -19
4 -19 5 -1 6 11 0 28 -6 38 -16z m-69 -8 c-3 -9 -8 -14 -10 -11 -3 3 -2 9 2
15 9 16 15 13 8 -4z m-1760 -114 c22 -61 43 -108 47 -104 4 4 24 56 45 116 21
59 42 107 47 107 11 0 9 -5 -42 -149 -23 -64 -44 -107 -53 -109 -15 -3 -17 0
-67 143 -15 44 -31 88 -36 99 -5 13 -3 17 6 14 8 -2 32 -55 53 -117z m517 89
c0 -23 4 -30 20 -30 11 0 20 -4 20 -10 0 -5 -10 -10 -21 -10 -20 0 -21 -4 -17
-71 3 -55 8 -74 23 -85 23 -17 14 -29 -13 -15 -11 6 -22 25 -26 42 -10 51 -7
209 4 209 6 0 10 -13 10 -30z m515 16 c25 -11 33 -19 29 -30 -7 -19 -5 -19
-40 -1 -36 18 -55 19 -78 2 -28 -21 -9 -45 49 -62 87 -25 108 -74 54 -127 -29
-29 -33 -30 -90 -25 -68 6 -72 8 -64 29 5 13 12 14 40 5 50 -15 100 1 100 33
0 16 -8 28 -25 36 -87 40 -105 51 -108 67 -14 70 53 106 133 73z m105 -16 c0
-25 4 -30 25 -30 16 0 25 -6 25 -15 0 -9 -9 -15 -25 -15 -24 0 -25 -3 -25 -60
0 -55 2 -62 25 -72 14 -6 25 -15 25 -20 0 -18 -31 -20 -55 -4 -24 16 -25 20
-25 131 0 96 3 115 15 115 10 0 15 -10 15 -30z m482 -32 l3 -62 36 32 c20 18
45 32 55 32 14 0 9 -9 -21 -40 l-39 -40 42 -60 c40 -57 41 -60 20 -60 -16 0
-32 14 -53 45 -16 25 -33 45 -37 45 -5 0 -8 -20 -8 -45 0 -38 -3 -45 -20 -45
-19 0 -20 7 -20 130 0 122 1 130 20 130 16 0 19 -8 22 -62z m193 30 c1 -20 -2
-24 -11 -17 -8 7 -14 6 -17 -3 -3 -7 -6 2 -6 20 -1 27 3 33 17 30 11 -2 17
-13 17 -30z m-44 -35 c13 -16 12 -17 -3 -4 -17 13 -22 21 -14 21 2 0 10 -8 17
-17z m-1502 -19 c12 -15 21 -40 21 -55 0 -29 0 -29 -65 -29 -72 0 -83 -12 -44
-51 17 -17 30 -20 65 -16 43 4 59 -5 28 -17 -45 -17 -106 3 -123 41 -45 98 56
206 118 127z m191 16 c17 -11 10 -13 -40 -10 -47 2 -75 -28 -75 -80 0 -55 26
-80 82 -80 27 0 42 -4 38 -10 -9 -15 -78 -12 -102 5 -50 35 -50 135 0 170 24
17 74 20 97 5z m265 -13 c20 -16 28 -35 32 -69 5 -42 3 -50 -25 -78 -41 -41
-83 -41 -124 0 -28 28 -30 36 -25 78 9 82 84 119 142 69z m85 7 c0 -14 2 -14
22 0 24 17 38 20 38 9 0 -5 -14 -16 -30 -25 -29 -17 -30 -19 -30 -93 0 -43 -4
-75 -10 -75 -6 0 -10 40 -10 100 0 60 4 100 10 100 6 0 10 -7 10 -16z m537 1
c30 -21 44 -75 32 -120 -25 -88 -143 -88 -168 0 -20 72 20 135 84 135 17 0 40
-7 52 -15z m198 -5 c0 -10 -8 -14 -27 -12 -58 6 -91 -42 -67 -100 11 -28 36
-40 74 -35 12 1 20 -4 20 -13 0 -19 -48 -25 -85 -10 -63 26 -68 148 -6 179 31
15 91 9 91 -9z m5394 -83 c8 -26 17 -47 21 -47 4 0 13 21 21 47 8 25 20 48 27
51 8 2 4 -19 -12 -63 -36 -99 -36 -99 -72 0 -16 44 -20 65 -12 63 7 -3 19 -26
27 -51z m638 38 c2 -6 -9 -11 -23 -10 -39 0 -42 -23 -5 -36 34 -12 49 -43 31
-64 -13 -16 -38 -19 -64 -9 -27 10 -18 22 17 20 38 -1 43 19 8 37 -36 18 -48
42 -31 62 14 17 61 17 67 0z m333 -20 c0 -35 16 -47 26 -20 4 8 13 15 22 15
13 0 13 -3 -2 -19 -16 -18 -16 -21 -1 -50 19 -38 8 -40 -22 -3 l-22 27 -1 -27
c0 -16 -4 -28 -10 -28 -6 0 -10 30 -10 70 0 40 4 70 10 70 6 0 10 -16 10 -35z
m580 32 c0 -4 -34 -104 -45 -136 -3 -8 -8 -11 -11 -8 -8 7 38 147 48 147 4 0
8 -2 8 -3z m70 -57 c0 -33 4 -60 10 -60 6 0 10 -4 10 -10 0 -5 -13 -10 -30
-10 -16 0 -30 5 -30 10 0 6 5 10 10 10 6 0 10 20 10 45 0 38 -2 43 -17 38 -16
-6 -16 -4 1 15 29 34 36 27 36 -38z m122 8 c2 -29 2 -61 0 -70 -5 -22 -22 -24
-22 -3 0 10 -10 15 -30 15 -16 0 -30 3 -30 6 0 16 56 104 67 104 6 0 13 -22
15 -52z m122 30 c44 -63 -17 -154 -68 -102 -9 9 -16 32 -16 54 0 64 52 94 84
48z m126 17 c0 -6 -60 -127 -66 -134 -2 -2 -7 -2 -10 1 -3 3 6 29 20 57 14 28
26 53 26 56 0 3 -13 5 -30 5 -16 0 -30 5 -30 10 0 6 20 10 45 10 25 0 45 -2
45 -5z m60 -55 c0 -33 4 -60 10 -60 6 0 10 -4 10 -10 0 -5 -13 -10 -30 -10
-16 0 -30 5 -30 10 0 6 5 10 10 10 6 0 10 20 10 45 0 38 -2 43 -17 38 -16 -6
-16 -4 1 15 29 34 36 27 36 -38z m120 50 c0 -5 -11 -10 -25 -10 -32 0 -32 -16
-1 -24 27 -7 41 -35 31 -65 -7 -23 -37 -35 -65 -26 -31 10 -24 23 13 21 28 -1
32 2 32 24 0 21 -4 25 -30 24 -29 -1 -30 0 -27 32 4 31 7 34 38 34 19 0 34 -4
34 -10z m114 -12 c44 -63 -17 -154 -68 -102 -9 9 -16 32 -16 54 0 64 52 94 84
48z m116 12 c0 -5 -11 -10 -25 -10 -32 0 -32 -16 -1 -24 27 -7 41 -35 31 -65
-7 -23 -37 -35 -65 -26 -31 10 -24 23 13 21 28 -1 32 2 32 24 0 21 -4 25 -30
24 -29 -1 -30 0 -27 32 4 31 7 34 38 34 19 0 34 -4 34 -10z m-2060 -35 c9 -10
9 -15 1 -15 -15 0 -14 -57 2 -63 6 -2 9 -7 6 -11 -15 -17 -37 8 -41 47 -7 58
5 74 32 42z m360 0 c9 -10 9 -15 1 -15 -15 0 -14 -57 2 -63 6 -2 9 -7 6 -11
-15 -17 -37 8 -41 47 -7 58 5 74 32 42z m-532 -7 c23 -23 13 -38 -24 -38 -46
0 -41 -23 7 -30 27 -4 30 -7 16 -13 -28 -11 -44 -9 -61 9 -32 31 -14 84 29 84
12 0 26 -5 33 -12z m117 3 c3 -5 -9 -11 -27 -13 -28 -2 -33 -7 -33 -28 0 -21
5 -26 33 -28 36 -4 34 -22 -3 -22 -28 0 -55 24 -55 50 0 37 67 69 85 41z m169
-7 c21 -20 20 -43 -1 -66 -20 -22 -46 -23 -67 -2 -31 30 -9 84 34 84 10 0 26
-7 34 -16z m86 6 c0 -4 -7 -10 -15 -14 -9 -3 -15 -19 -15 -41 0 -19 -4 -35
-10 -35 -5 0 -10 22 -10 49 0 45 2 49 25 49 14 0 25 -4 25 -8z m274 -6 c21
-20 20 -43 -1 -66 -20 -22 -46 -23 -67 -2 -31 30 -9 84 34 84 10 0 26 -7 34
-16z m121 7 c3 -5 -9 -11 -27 -13 -28 -2 -33 -7 -33 -28 0 -21 5 -26 33 -28
36 -4 34 -22 -3 -22 -28 0 -55 24 -55 50 0 37 67 69 85 41z m242 2 c14 -6 10
-9 -17 -13 -29 -4 -35 -9 -35 -30 0 -21 5 -26 33 -28 36 -4 34 -22 -3 -22 -28
0 -55 24 -55 50 0 22 25 50 45 50 7 0 22 -3 32 -7z m107 -9 c21 -20 20 -43 -1
-66 -20 -22 -46 -23 -67 -2 -31 30 -9 84 34 84 10 0 26 -7 34 -16z m111 5 c3
-5 14 -3 25 3 28 18 50 -6 50 -53 0 -22 -4 -39 -10 -39 -5 0 -10 18 -10 41 0
33 -3 40 -17 37 -13 -2 -19 -14 -21 -41 -4 -50 -22 -47 -22 4 0 36 -2 40 -22
37 -19 -2 -24 -10 -26 -40 -5 -55 -22 -47 -22 10 l0 48 35 1 c19 1 37 -3 40
-8z m-325 -79 c0 -5 -4 -10 -10 -10 -5 0 -10 5 -10 10 0 6 5 10 10 10 6 0 10
-4 10 -10z"/>
<path d="M2150 500 c0 -5 5 -10 10 -10 6 0 10 5 10 10 0 6 -4 10 -10 10 -5 0
-10 -4 -10 -10z"/>
<path d="M536 418 c-28 -39 -21 -48 39 -48 59 0 67 9 45 51 -15 27 -64 25 -84
-3z"/>
<path d="M986 424 c-50 -50 -21 -144 44 -144 48 0 80 50 66 104 -13 53 -75 75
-110 40z"/>
<path d="M1616 408 c-32 -46 -8 -118 39 -118 28 0 55 34 55 70 0 36 -27 70
-55 70 -13 0 -31 -10 -39 -22z"/>
<path d="M8997 350 c-18 -29 -18 -30 2 -30 17 0 21 6 21 30 0 17 -1 30 -3 30
-1 0 -11 -13 -20 -30z"/>
<path d="M9104 365 c-9 -38 3 -75 26 -75 13 0 22 9 26 25 9 38 -3 75 -26 75
-13 0 -22 -9 -26 -25z"/>
<path d="M9524 365 c-9 -38 3 -75 26 -75 23 0 35 37 26 75 -4 16 -13 25 -26
25 -13 0 -22 -9 -26 -25z"/>
<path d="M7415 340 c-4 -6 5 -10 19 -10 14 0 26 5 26 10 0 6 -9 10 -19 10 -11
0 -23 -4 -26 -10z"/>
<path d="M7694 336 c-10 -26 4 -48 28 -44 17 2 23 10 23 28 0 18 -6 26 -23 28
-13 2 -25 -3 -28 -12z"/>
<path d="M8054 336 c-10 -26 4 -48 28 -44 17 2 23 10 23 28 0 18 -6 26 -23 28
-13 2 -25 -3 -28 -12z"/>
<path d="M8524 336 c-10 -26 4 -48 28 -44 17 2 23 10 23 28 0 18 -6 26 -23 28
-13 2 -25 -3 -28 -12z"/>
</g>
</svg>
